# xmcd CD database file
#
# Track frame offsets:
#	150
#	4654
#	25079
#	49823
#	51297
#	72855
#	93464
#	114180
#	133434
#	158327
#	159197
#	182939
#	184420
#	211147
#	241551
#	243525
#	263950
#	285117
#	304993
#	327931
#
# Disc length: 4381 seconds
#
# Revision: 8
# Processed by: cddbd v1.5.1PL0 Copyright (c) Steve Scherf et al.
# Submitted via: CDex 1.51
#
DISCID=0c111b14
DTITLE=Janet Jackson - All For You
DYEAR=2001
DGENRE=R&B
TTITLE0=Intro
TTITLE1=You Ain't Right
TTITLE2=All For You
TTITLE3=2Wayforyou (Interlude)
TTITLE4=Come On Get Up
TTITLE5=When We Oooo
TTITLE6=China Love
TTITLE7=Love Scene (Ooh Baby)
TTITLE8=Would You Mind
TTITLE9=Lame (Interlude)
TTITLE10=Trust A Try
TTITLE11=Clouds (Interlude)
TTITLE12=Son Of A Gun (I Betcha Think This Song Is About You)
TTITLE13=Truth
TTITLE14=Theory (Interlude)
TTITLE15=Someone To Call My Lover
TTITLE16=Feels So Right
TTITLE17=Doesn't Really Matter
TTITLE18=Better Days
TTITLE19=Outro
EXTD=YEAR: 2001
EXTT0=
EXTT1=
EXTT2=
EXTT3=
EXTT4=
EXTT5=
EXTT6=
EXTT7=
EXTT8=
EXTT9=
EXTT10=
EXTT11=
EXTT12=
EXTT13=
EXTT14=
EXTT15=
EXTT16=
EXTT17=
EXTT18=
EXTT19=
PLAYORDER=
